<?xml version="1.0" ?>
    <svg version="1.1" id="Logo" xmlns="http://www.w3.org/2000/svg"  x="0px" y="0px" viewBox="0 0 779.2 211.4" fill="#fff">
    <title>Logo</title>
    <g>
        <path d="M21.8,11h35.4v10.4H34.4v171.8h22.8v10.4H21.8V11z"/>
        <path d="M96.8,41.8c-5-3.4-10.4-6.8-16.2-10l5.8-10.4c6.2,3.4,12.4,7,18,11l9.6-11.6l7.8,5.4l-9.8,12
            c21.8,17.6,36.8,41.2,36.8,71.4v6.8c0,27.2-17,46.6-44.4,46.6c-27,0-43.2-19-43.2-45.8c0-27,16.8-47,42.2-47
            c11.2,0,19.4,4.2,25.4,9.6c-4.8-12.6-13.2-23.2-24.4-32.2L93.2,61.4l-8-5.6L96.8,41.8z M76.2,116.4c0,19.2,9.6,34.4,28.8,34.4
            c18.6,0,28.8-14.4,28.8-33.8v-8.6c-0.6-11-11.4-26-29.6-26C86.2,82.4,76.2,96.6,76.2,116.4z"/>
        <path d="M203,70.2c25.2,0,42,16.4,42,45.2c0,27.6-15.6,47.6-40.8,47.6c-24.4,0-37.6-18-37.8-39c0-3.4,0.4-7,1.2-10.6
            h62.6c-0.8-19.8-10.6-31.2-28.2-31.2c-14,0-21.8,7.2-24.6,18.2l-11.8-2.6C168,82.6,181,70.2,203,70.2z M204.6,151.4
            c16.4,0,23.6-12.6,25.4-27.6h-48.8C179.8,137,187.2,151.4,204.6,151.4z"/>
        <path d="M256.6,161v-11.4h15.6V34.8h-15.8V23.4h29.8v126.2h15.6V161H256.6z"/>
        <path d="M312.6,161v-11.4h15.6V83.4h-16V72h30v77.6h15.6V161H312.6z M326.8,30.8H342V49h-15.2V30.8z"/>
        <path d="M409.8,163c-24.6,0-40.4-16.6-40.4-45.2c0-24.6,14-47.6,41.6-47.6c11.8,0,21.4,2.4,30.4,9.2l3.4,21.4
            l-11.6,1.4l-3.4-15c-5.4-3.4-11.4-5-19-5c-19,0-26.6,15.6-26.6,34.8c0,21.4,9.6,34,27.2,34c13.8,0,21.4-8,24-22.6l12,2.6
            C445,146.6,434.4,163,409.8,163z"/>
        <path d="M501.8,70.2c20.6,0,31.8,9.8,31.8,29.8v42.4c0,6.6,2.4,9.6,7.6,9.6c1.8,0,4.2-0.4,6-1.2l0.2,9.2
            c-3.2,1.8-7.4,3-11.6,3c-10.4,0-16-7-16.2-18v-0.4c-5.6,9.6-16,18.4-30.4,18.4c-11.8,0-27-6-27-25c0-22.4,21.6-27.4,41.6-27.4
            c5.4,0,11,0.4,15.8,0.8v-8c0-12.8-4.2-21.6-20.2-21.6c-6,0-11.8,1-17.2,3.6l-3.4,15.4l-11.6-1.4l3.2-20.6
            C479.6,72.6,490.2,70.2,501.8,70.2z M519.6,120.8c-5-0.4-10.6-1-16.6-1c-13.2,0-26.2,2.8-26.2,16.6c0,11.4,8.8,15,16.6,15
            c12.4,0,25.2-9.2,26.2-23.8V120.8z"/>
        <path d="M595.8,163c-17.8,0-27.6-10.8-27.6-28.2V83.2h-14.4V72h14.4V43.4h14V72H617v11.2h-34.8V133
            c0,10.8,4.2,17.8,15,17.8c7,0,13.6-2.8,16.2-17.2L624,137C621.6,154.2,611.8,163,595.8,163z"/>
        <path d="M675.6,163c-27,0-43.2-19-43.2-45.8c0-26,15.2-47.2,44-47.2c29,0,43.8,21.2,43.8,46.4
            C720.2,143.4,703,163,675.6,163z M676,82c-18.6,0-29,14.6-29,34.4c0,19.4,10,34.6,29,34.6c19,0,29.4-14.8,29.4-34.8
            C705.4,95.8,694.6,82,676,82z"/>
        <path d="M724,203.6v-10.4h22.8V21.4H724V11h35.4v192.6H724z"/>
    </g>
</svg>